<svg xmlns="http://www.w3.org/2000/svg" viewBox="0 0 48 48" enable-background="new 0 0 48 48"><linearGradient id="a" gradientUnits="userSpaceOnUse" x1="24" x2="24" y2="48.001"><stop offset="0" stop-color="#fff"/><stop offset="1" stop-color="#EAEAEA"/></linearGradient><path fill-rule="evenodd" clip-rule="evenodd" fill="url(#a)" d="M48 42c0 3.313-2.687 6-6 6H6c-3.313 0-6-2.687-6-6V6c0-3.313 2.687-6 6-6h36c3.313 0 6 2.687 6 6v36z"/><path fill-rule="evenodd" clip-rule="evenodd" fill="none" d="M27.695 29.81s1.52 5.063 5.974 4.05c4.45-1.012 4.75-6.683 2.12-9.618-2.64-2.937-9.42 1.72-8.1 5.57z"/><path fill-rule="evenodd" clip-rule="evenodd" d="M11.828 18.18s-3.344 3.498-2.763 9.19c.58 5.695 4.186 10.393 16.208 10.393 12.02 0 15.045-6.275 15.116-11.436.07-5.16-2.26-7.46-3.35-8.243 0 0 0-3.704-.35-5.66 0 0-1.85-.22-5.85 2.07 0 0-5.46-.534-12.72.064 0 0-3.06-2.04-6.13-2.574 0 0-.51 3.212-.18 6.195z"/><path fill-rule="evenodd" clip-rule="evenodd" fill="#E2B89F" d="M17.21 23.815h14.917s4.227-.475 4.227 6.44c.034 6.086-11.14 5.693-11.14 5.693s-12.235.486-12.242-6.27c-.016-6.1 4.24-5.863 4.24-5.863z"/><path fill-rule="evenodd" clip-rule="evenodd" fill="#9C584F" d="M30.767 26.59c.96 0 1.737 1.25 1.737 2.788 0 1.54-.778 2.788-1.737 2.788-.958 0-1.736-1.248-1.736-2.788 0-1.537.78-2.787 1.74-2.787z"/><path fill="#fff" d="M30.767 32.666c-1.254 0-2.236-1.444-2.236-3.288 0-1.843.99-3.287 2.24-3.287 1.26 0 2.24 1.45 2.24 3.29 0 1.85-.98 3.29-2.23 3.29zm0-5.575c-.585 0-1.236.94-1.236 2.29s.66 2.29 1.24 2.29 1.24-.94 1.24-2.29-.65-2.28-1.23-2.28z"/><path fill-rule="evenodd" clip-rule="evenodd" fill="#9C584F" d="M18.767 26.59c.96 0 1.737 1.25 1.737 2.788 0 1.54-.778 2.788-1.737 2.788-.958 0-1.736-1.248-1.736-2.788 0-1.537.78-2.787 1.74-2.787z"/><path fill="#fff" d="M18.767 32.666c-1.254 0-2.236-1.444-2.236-3.288 0-1.843.99-3.287 2.24-3.287s2.24 1.45 2.24 3.29c0 1.85-.98 3.29-2.23 3.29zm0-5.575c-.585 0-1.236.94-1.236 2.29s.66 2.29 1.24 2.29 1.24-.94 1.24-2.29-.65-2.28-1.23-2.28z"/><path fill-rule="evenodd" clip-rule="evenodd" fill="#9C584F" d="M24.076 32.705s.5-1.418 1.11-.09c0 0-.458.298-.286.997l1.428.546h-3.23l1.28-.575s.184-1.056-.302-.878z"/></svg>